# xmcd
#
# Track frame offsets:
#	150
#	17512
#	31709
#	51187
#	67212
#	88752
#	106016
#	123299
#	141950
#	161365
#	177875
#	194135
#
# Disc length: 2834 seconds
#
# Revision: 0
# Processed by: cddbd v1.5PL3 Copyright (c) Steve Scherf et al.
# Submitted via: dBpowerAMP V4.0
#
DISCID=9e0b100c
DTITLE=Chord on Blues - White Space
DYEAR=2001
DGENRE=Acapella
TTITLE0=Get Down on It
TTITLE1=Barrel of a Gun
TTITLE2=Overjoyed
TTITLE3=Whatever
TTITLE4=King of Pain
TTITLE5=King of Wishful Thinking
TTITLE6=Summer Romance
TTITLE7=Wicked Game
TTITLE8=I Adore Mi Amor
TTITLE9=Died in Your Arms Tonight
TTITLE10=Shake You Down
TTITLE11=Crazy
EXTD=University of Pennsylvania's premier all-male a capella group
EXTT0=
EXTT1=
EXTT2=
EXTT3=
EXTT4=
EXTT5=
EXTT6=
EXTT7=
EXTT8=
EXTT9=
EXTT10=
EXTT11=
PLAYORDER=
